<svg width="400" height="200" xmlns="http://www.w3.org/2000/svg">
  <!-- Background -->
  <rect width="400" height="200" fill="white"/>
  
  <!-- Grid lines -->
  <g stroke="#e0e0e0" stroke-width="1">
    <line x1="40" y1="30" x2="40" y2="150"/>
    <line x1="40" y1="150" x2="360" y2="150"/>
  </g>
  
  <!-- Y-axis labels -->
  <g font-family="Arial, sans-serif" font-size="12" fill="#666">
    <text x="35" y="35" text-anchor="end">40</text>
    <text x="35" y="70" text-anchor="end">38</text>
    <text x="35" y="105" text-anchor="end">36</text>
    <text x="35" y="140" text-anchor="end">34</text>
  </g>
  
  <!-- X-axis labels -->
  <g font-family="Arial, sans-serif" font-size="12" fill="#666">
    <text x="80" y="170" text-anchor="middle">7:00:00</text>
    <text x="160" y="170" text-anchor="middle">7:02:00</text>
    <text x="240" y="170" text-anchor="middle">7:04:00</text>
    <text x="320" y="170" text-anchor="middle">7:06:00</text>
  </g>
  
  <!-- Axis labels -->
  <g font-family="Arial, sans-serif" font-size="13" fill="#333">
    <text x="200" y="190" text-anchor="middle">@timestamp</text>
  </g>
  
  <!-- Line -->
  <polyline points="80,140 120,110 160,105 200,80 240,70 280,75 320,105" 
            stroke="#0066cc" stroke-width="2" fill="none"/>
  
  <!-- Data points (smaller) -->
  <g fill="#0066cc">
    <circle cx="80" cy="140" r="3"/>
    <circle cx="120" cy="110" r="3"/>
    <circle cx="160" cy="105" r="3"/>
    <circle cx="200" cy="80" r="3"/>
    <circle cx="240" cy="70" r="3"/>
    <circle cx="280" cy="75" r="3"/>
    <circle cx="320" cy="105" r="3"/>
  </g>
</svg>