<svg width="18" height="17" viewBox="0 0 18 17" fill="none" xmlns="http://www.w3.org/2000/svg">
<path fill-rule="evenodd" clip-rule="evenodd" d="M5.72024 0.359516C5.50052 0.575091 5.49242 0.932929 5.70216 1.15877L9.06883 4.78394C9.13645 4.85675 9.13645 4.97134 9.06883 5.04416L5.70216 8.66932C5.49242 8.89516 5.50052 9.253 5.72024 9.46858C5.93997 9.68415 6.28811 9.67583 6.49785 9.44999L9.86452 5.82482C10.3379 5.31511 10.3379 4.51298 9.86452 4.00327L6.49785 0.378103C6.28811 0.152263 5.93997 0.143941 5.72024 0.359516Z" fill="#111C2C"/>
<path fill-rule="evenodd" clip-rule="evenodd" d="M12.2798 16.0467C12.4995 15.8312 12.5076 15.4733 12.2978 15.2475L8.93117 11.6223C8.86355 11.5495 8.86355 11.4349 8.93117 11.3621L12.2978 7.73692C12.5076 7.51108 12.4995 7.15325 12.2798 6.93767C12.06 6.7221 11.7119 6.73042 11.5022 6.95626L8.13548 10.5814C7.66211 11.0911 7.66211 11.8933 8.13548 12.403L11.5022 16.0281C11.7119 16.254 12.06 16.2623 12.2798 16.0467Z" fill="#111C2C"/>
<path d="M9.53334 4.91405L1.00001 4.91405" stroke="#111C2C" stroke-linecap="round"/>
<path d="M8.46666 11.4922L17 11.4922" stroke="#111C2C" stroke-linecap="round"/>
</svg>
