<svg width="141" height="30" viewBox="0 0 141 30" fill="none" xmlns="http://www.w3.org/2000/svg">
<rect width="111" height="30" fill="#2AB514"/>
<path d="M9.88494 21V10.8182H16.7457V12.593H12.0376V15.0192H16.3928V16.794H12.0376V19.2251H16.7656V21H9.88494ZM20.5353 10.8182V21H18.4174V10.8182H20.5353ZM24.4094 21.1442C23.9222 21.1442 23.488 21.0597 23.1069 20.8906C22.7257 20.7183 22.4241 20.4647 22.2021 20.13C21.9833 19.7919 21.8739 19.371 21.8739 18.8672C21.8739 18.4429 21.9518 18.0866 22.1076 17.7983C22.2634 17.5099 22.4755 17.2779 22.744 17.1023C23.0124 16.9266 23.3174 16.794 23.6587 16.7045C24.0034 16.6151 24.3647 16.5521 24.7425 16.5156C25.1867 16.4692 25.5446 16.4261 25.8164 16.3864C26.0882 16.3433 26.2854 16.2803 26.408 16.1974C26.5307 16.1146 26.592 15.992 26.592 15.8295V15.7997C26.592 15.4848 26.4925 15.2412 26.2937 15.0689C26.0981 14.8965 25.8197 14.8104 25.4585 14.8104C25.0773 14.8104 24.774 14.8949 24.5487 15.0639C24.3233 15.2296 24.1741 15.4384 24.1012 15.6903L22.1424 15.5312C22.2418 15.0672 22.4374 14.6662 22.729 14.3281C23.0207 13.9867 23.3969 13.7249 23.8576 13.5426C24.3216 13.357 24.8585 13.2642 25.4684 13.2642C25.8926 13.2642 26.2987 13.3139 26.6864 13.4134C27.0775 13.5128 27.4239 13.6669 27.7255 13.8757C28.0304 14.0845 28.2707 14.353 28.4464 14.6811C28.622 15.0059 28.7099 15.3954 28.7099 15.8494V21H26.7013V19.9411H26.6417C26.5191 20.1797 26.355 20.3902 26.1495 20.5724C25.944 20.7514 25.6971 20.8923 25.4087 20.995C25.1204 21.0945 24.7873 21.1442 24.4094 21.1442ZM25.016 19.6825C25.3275 19.6825 25.6026 19.6212 25.8413 19.4986C26.0799 19.3726 26.2672 19.2036 26.4031 18.9915C26.5389 18.7794 26.6069 18.5391 26.6069 18.2706V17.4602C26.5406 17.5033 26.4495 17.5431 26.3335 17.5795C26.2208 17.6127 26.0932 17.6442 25.9506 17.674C25.8081 17.7005 25.6656 17.7254 25.5231 17.7486C25.3806 17.7685 25.2513 17.7867 25.1353 17.8033C24.8867 17.8397 24.6696 17.8977 24.484 17.9773C24.2984 18.0568 24.1542 18.1645 24.0515 18.3004C23.9487 18.433 23.8974 18.5987 23.8974 18.7976C23.8974 19.0859 24.0018 19.3063 24.2106 19.4588C24.4227 19.608 24.6912 19.6825 25.016 19.6825ZM36.7067 15.5412L34.7678 15.6605C34.7346 15.4948 34.6634 15.3456 34.554 15.2131C34.4446 15.0772 34.3004 14.9695 34.1214 14.8899C33.9458 14.8071 33.7353 14.7656 33.4901 14.7656C33.1619 14.7656 32.8852 14.8352 32.6598 14.9744C32.4344 15.1103 32.3217 15.2926 32.3217 15.5213C32.3217 15.7036 32.3946 15.8577 32.5405 15.9837C32.6863 16.1096 32.9366 16.2107 33.2912 16.2869L34.6733 16.5653C35.4157 16.7178 35.9692 16.9631 36.3338 17.3011C36.6984 17.6392 36.8807 18.0833 36.8807 18.6335C36.8807 19.134 36.7332 19.5732 36.4382 19.951C36.1465 20.3288 35.7455 20.6238 35.2351 20.8359C34.728 21.0447 34.143 21.1491 33.4801 21.1491C32.4692 21.1491 31.6638 20.9387 31.0639 20.5178C30.4673 20.0935 30.1177 19.5168 30.0149 18.7876L32.098 18.6783C32.161 18.9865 32.3134 19.2218 32.5554 19.3842C32.7973 19.5433 33.1072 19.6229 33.4851 19.6229C33.8563 19.6229 34.1546 19.5516 34.38 19.4091C34.6087 19.2633 34.7247 19.076 34.728 18.8473C34.7247 18.6551 34.6435 18.4976 34.4844 18.375C34.3253 18.2491 34.08 18.1529 33.7486 18.0866L32.4261 17.8232C31.6804 17.674 31.1252 17.4155 30.7607 17.0476C30.3994 16.6797 30.2188 16.2107 30.2188 15.6406C30.2188 15.1501 30.3513 14.7275 30.6165 14.3729C30.8849 14.0182 31.2611 13.7448 31.745 13.5526C32.2322 13.3603 32.8023 13.2642 33.4553 13.2642C34.4197 13.2642 35.1787 13.468 35.7322 13.8757C36.2891 14.2834 36.6139 14.8385 36.7067 15.5412ZM42.2761 13.3636V14.9545H37.6774V13.3636H42.2761ZM38.7214 11.5341H40.8393V18.6534C40.8393 18.849 40.8691 19.0014 40.9288 19.1108C40.9885 19.2169 41.0713 19.2914 41.1774 19.3345C41.2868 19.3776 41.4127 19.3991 41.5552 19.3991C41.6547 19.3991 41.7541 19.3909 41.8535 19.3743C41.9529 19.3544 42.0292 19.3395 42.0822 19.3295L42.4153 20.9055C42.3092 20.9387 42.1601 20.9768 41.9679 21.0199C41.7756 21.0663 41.542 21.0945 41.2669 21.1044C40.7565 21.1243 40.309 21.0563 39.9245 20.9006C39.5434 20.7448 39.2467 20.5028 39.0346 20.1747C38.8225 19.8466 38.7181 19.4323 38.7214 18.9318V11.5341ZM43.6557 21V13.3636H45.7736V21H43.6557ZM44.7196 12.3793C44.4048 12.3793 44.1346 12.2749 43.9093 12.0661C43.6872 11.8539 43.5762 11.6004 43.5762 11.3054C43.5762 11.0137 43.6872 10.7635 43.9093 10.5547C44.1346 10.3426 44.4048 10.2365 44.7196 10.2365C45.0345 10.2365 45.303 10.3426 45.525 10.5547C45.7504 10.7635 45.8631 11.0137 45.8631 11.3054C45.8631 11.6004 45.7504 11.8539 45.525 12.0661C45.303 12.2749 45.0345 12.3793 44.7196 12.3793ZM50.9205 21.1491C50.1383 21.1491 49.4654 20.9834 48.902 20.652C48.3419 20.3172 47.911 19.8532 47.6094 19.2599C47.3111 18.6667 47.1619 17.9839 47.1619 17.2116C47.1619 16.4295 47.3127 15.7434 47.6143 15.1534C47.9193 14.5601 48.3518 14.0978 48.9119 13.7663C49.4721 13.4316 50.1383 13.2642 50.9105 13.2642C51.5767 13.2642 52.16 13.3852 52.6605 13.6271C53.161 13.8691 53.5571 14.2088 53.8487 14.6463C54.1404 15.0838 54.3011 15.5975 54.331 16.1875H52.3324C52.276 15.8063 52.1269 15.4998 51.8849 15.2678C51.6463 15.0324 51.3331 14.9148 50.9453 14.9148C50.6172 14.9148 50.3305 15.0043 50.0852 15.1832C49.8433 15.3589 49.6544 15.6158 49.5185 15.9538C49.3826 16.2919 49.3146 16.7012 49.3146 17.1818C49.3146 17.669 49.3809 18.0833 49.5135 18.4247C49.6494 18.7661 49.84 19.0263 50.0852 19.2053C50.3305 19.3842 50.6172 19.4737 50.9453 19.4737C51.1873 19.4737 51.4044 19.424 51.5966 19.3246C51.7921 19.2251 51.9529 19.081 52.0788 18.892C52.2081 18.6998 52.2926 18.4695 52.3324 18.201H54.331C54.2978 18.7843 54.1387 19.2981 53.8537 19.7422C53.572 20.183 53.1825 20.5277 52.6854 20.7763C52.1882 21.0249 51.5999 21.1491 50.9205 21.1491ZM62.0407 15.5412L60.1017 15.6605C60.0686 15.4948 59.9973 15.3456 59.888 15.2131C59.7786 15.0772 59.6344 14.9695 59.4554 14.8899C59.2798 14.8071 59.0693 14.7656 58.824 14.7656C58.4959 14.7656 58.2192 14.8352 57.9938 14.9744C57.7684 15.1103 57.6557 15.2926 57.6557 15.5213C57.6557 15.7036 57.7286 15.8577 57.8745 15.9837C58.0203 16.1096 58.2705 16.2107 58.6252 16.2869L60.0073 16.5653C60.7497 16.7178 61.3032 16.9631 61.6678 17.3011C62.0324 17.6392 62.2147 18.0833 62.2147 18.6335C62.2147 19.134 62.0672 19.5732 61.7722 19.951C61.4805 20.3288 61.0795 20.6238 60.5691 20.8359C60.062 21.0447 59.477 21.1491 58.8141 21.1491C57.8032 21.1491 56.9978 20.9387 56.3979 20.5178C55.8013 20.0935 55.4516 19.5168 55.3489 18.7876L57.432 18.6783C57.495 18.9865 57.6474 19.2218 57.8894 19.3842C58.1313 19.5433 58.4412 19.6229 58.8191 19.6229C59.1903 19.6229 59.4886 19.5516 59.714 19.4091C59.9426 19.2633 60.0587 19.076 60.062 18.8473C60.0587 18.6551 59.9775 18.4976 59.8184 18.375C59.6593 18.2491 59.414 18.1529 59.0826 18.0866L57.7601 17.8232C57.0144 17.674 56.4592 17.4155 56.0946 17.0476C55.7334 16.6797 55.5527 16.2107 55.5527 15.6406C55.5527 15.1501 55.6853 14.7275 55.9505 14.3729C56.2189 14.0182 56.5951 13.7448 57.079 13.5526C57.5662 13.3603 58.1363 13.2642 58.7892 13.2642C59.7537 13.2642 60.5127 13.468 61.0662 13.8757C61.623 14.2834 61.9479 14.8385 62.0407 15.5412ZM67.0284 21.1491C66.2429 21.1491 65.5668 20.9901 65 20.6719C64.4366 20.3504 64.0024 19.8963 63.6974 19.3097C63.3925 18.7197 63.2401 18.022 63.2401 17.2166C63.2401 16.4311 63.3925 15.7417 63.6974 15.1484C64.0024 14.5552 64.4316 14.0928 64.9851 13.7614C65.5419 13.4299 66.1948 13.2642 66.9439 13.2642C67.4477 13.2642 67.9167 13.3454 68.3509 13.5078C68.7884 13.6669 69.1695 13.9072 69.4943 14.2287C69.8224 14.5502 70.0777 14.9545 70.2599 15.4418C70.4422 15.9257 70.5334 16.4924 70.5334 17.142V17.7237H64.0852V16.4112H68.5398C68.5398 16.1063 68.4735 15.8362 68.3409 15.6009C68.2083 15.3655 68.0244 15.1816 67.7891 15.049C67.5571 14.9131 67.2869 14.8452 66.9787 14.8452C66.6572 14.8452 66.3722 14.9197 66.1236 15.0689C65.8783 15.2147 65.6861 15.4119 65.5469 15.6605C65.4077 15.9058 65.3364 16.1792 65.3331 16.4808V17.7287C65.3331 18.1065 65.4027 18.433 65.5419 18.7081C65.6844 18.9832 65.8849 19.1953 66.1435 19.3445C66.402 19.4936 66.7086 19.5682 67.0632 19.5682C67.2985 19.5682 67.514 19.535 67.7095 19.4688C67.9051 19.4025 68.0724 19.303 68.2116 19.1705C68.3509 19.0379 68.4569 18.8755 68.5298 18.6832L70.4886 18.8125C70.3892 19.2831 70.1854 19.6941 69.8771 20.0455C69.5722 20.3935 69.1778 20.6652 68.6939 20.8608C68.2133 21.053 67.6581 21.1491 67.0284 21.1491ZM74.093 21.1442C73.6058 21.1442 73.1716 21.0597 72.7905 20.8906C72.4093 20.7183 72.1077 20.4647 71.8857 20.13C71.6669 19.7919 71.5575 19.371 71.5575 18.8672C71.5575 18.4429 71.6354 18.0866 71.7912 17.7983C71.947 17.5099 72.1591 17.2779 72.4276 17.1023C72.696 16.9266 73.0009 16.794 73.3423 16.7045C73.687 16.6151 74.0483 16.5521 74.4261 16.5156C74.8703 16.4692 75.2282 16.4261 75.5 16.3864C75.7718 16.3433 75.969 16.2803 76.0916 16.1974C76.2143 16.1146 76.2756 15.992 76.2756 15.8295V15.7997C76.2756 15.4848 76.1761 15.2412 75.9773 15.0689C75.7817 14.8965 75.5033 14.8104 75.142 14.8104C74.7609 14.8104 74.4576 14.8949 74.2322 15.0639C74.0069 15.2296 73.8577 15.4384 73.7848 15.6903L71.826 15.5312C71.9254 15.0672 72.121 14.6662 72.4126 14.3281C72.7043 13.9867 73.0805 13.7249 73.5412 13.5426C74.0052 13.357 74.5421 13.2642 75.152 13.2642C75.5762 13.2642 75.9822 13.3139 76.37 13.4134C76.7611 13.5128 77.1075 13.6669 77.4091 13.8757C77.714 14.0845 77.9543 14.353 78.13 14.6811C78.3056 15.0059 78.3935 15.3954 78.3935 15.8494V21H76.3849V19.9411H76.3253C76.2027 20.1797 76.0386 20.3902 75.8331 20.5724C75.6276 20.7514 75.3807 20.8923 75.0923 20.995C74.804 21.0945 74.4709 21.1442 74.093 21.1442ZM74.6996 19.6825C75.0111 19.6825 75.2862 19.6212 75.5249 19.4986C75.7635 19.3726 75.9508 19.2036 76.0866 18.9915C76.2225 18.7794 76.2905 18.5391 76.2905 18.2706V17.4602C76.2242 17.5033 76.133 17.5431 76.017 17.5795C75.9044 17.6127 75.7768 17.6442 75.6342 17.674C75.4917 17.7005 75.3492 17.7254 75.2067 17.7486C75.0642 17.7685 74.9349 17.7867 74.8189 17.8033C74.5703 17.8397 74.3532 17.8977 74.1676 17.9773C73.982 18.0568 73.8378 18.1645 73.7351 18.3004C73.6323 18.433 73.581 18.5987 73.581 18.7976C73.581 19.0859 73.6854 19.3063 73.8942 19.4588C74.1063 19.608 74.3748 19.6825 74.6996 19.6825ZM80.0366 21V13.3636H82.0898V14.696H82.1694C82.3086 14.2221 82.5423 13.8641 82.8704 13.6222C83.1985 13.3769 83.5763 13.2543 84.0039 13.2543C84.11 13.2543 84.2243 13.2609 84.3469 13.2741C84.4696 13.2874 84.5773 13.3056 84.6701 13.3288V15.2081C84.5707 15.1783 84.4331 15.1518 84.2575 15.1286C84.0818 15.1054 83.921 15.0938 83.7752 15.0938C83.4637 15.0938 83.1853 15.1617 82.94 15.2976C82.698 15.4302 82.5058 15.6158 82.3633 15.8544C82.2241 16.093 82.1545 16.3681 82.1545 16.6797V21H80.0366ZM88.8599 21.1491C88.0777 21.1491 87.4049 20.9834 86.8414 20.652C86.2813 20.3172 85.8504 19.8532 85.5488 19.2599C85.2505 18.6667 85.1014 17.9839 85.1014 17.2116C85.1014 16.4295 85.2522 15.7434 85.5538 15.1534C85.8587 14.5601 86.2913 14.0978 86.8514 13.7663C87.4115 13.4316 88.0777 13.2642 88.85 13.2642C89.5162 13.2642 90.0995 13.3852 90.6 13.6271C91.1004 13.8691 91.4965 14.2088 91.7882 14.6463C92.0798 15.0838 92.2406 15.5975 92.2704 16.1875H90.2718C90.2155 15.8063 90.0663 15.4998 89.8244 15.2678C89.5858 15.0324 89.2725 14.9148 88.8848 14.9148C88.5566 14.9148 88.2699 15.0043 88.0247 15.1832C87.7827 15.3589 87.5938 15.6158 87.4579 15.9538C87.322 16.2919 87.2541 16.7012 87.2541 17.1818C87.2541 17.669 87.3204 18.0833 87.4529 18.4247C87.5888 18.7661 87.7794 19.0263 88.0247 19.2053C88.2699 19.3842 88.5566 19.4737 88.8848 19.4737C89.1267 19.4737 89.3438 19.424 89.536 19.3246C89.7316 19.2251 89.8923 19.081 90.0183 18.892C90.1475 18.6998 90.2321 18.4695 90.2718 18.201H92.2704C92.2373 18.7843 92.0782 19.2981 91.7931 19.7422C91.5114 20.183 91.122 20.5277 90.6248 20.7763C90.1277 21.0249 89.5394 21.1491 88.8599 21.1491ZM95.7443 16.5852V21H93.6264V10.8182H95.6847V14.7109H95.7741C95.9465 14.2602 96.2249 13.9072 96.6094 13.652C96.9938 13.3935 97.4761 13.2642 98.0561 13.2642C98.5864 13.2642 99.0488 13.3802 99.4432 13.6122C99.8409 13.8409 100.149 14.1707 100.368 14.6016C100.59 15.0291 100.699 15.5412 100.696 16.1378V21H98.5781V16.5156C98.5814 16.045 98.4621 15.6787 98.2202 15.4169C97.9815 15.1551 97.6468 15.0241 97.2159 15.0241C96.9276 15.0241 96.6723 15.0855 96.4503 15.2081C96.2315 15.3307 96.0592 15.5097 95.9332 15.745C95.8106 15.977 95.7476 16.2571 95.7443 16.5852Z" fill="white"/>
<rect x="113" width="28" height="30" fill="#2AB514"/>
<path d="M124.567 17.4919L131.903 10.1508C132.337 9.71679 133.041 9.71657 133.475 10.1503C133.909 10.5841 133.909 11.2876 133.475 11.7217L125.353 19.8492C124.919 20.2835 124.215 20.2835 123.781 19.8492L120.525 16.5911C120.091 16.157 120.091 15.4535 120.525 15.0197C120.959 14.5859 121.663 14.5862 122.097 15.0202L124.567 17.4919Z" fill="white"/>
</svg>
