<svg width="141" height="30" viewBox="0 0 141 30" fill="none" xmlns="http://www.w3.org/2000/svg">
<rect width="111" height="30" fill="#2AB514"/>
<path d="M19.2415 15.9091C19.2415 17.0194 19.031 17.964 18.6101 18.7429C18.1925 19.5218 17.6224 20.1167 16.8999 20.5277C16.1806 20.9354 15.3719 21.1392 14.4737 21.1392C13.5689 21.1392 12.7569 20.9337 12.0376 20.5227C11.3184 20.1117 10.75 19.5168 10.3324 18.7379C9.91477 17.959 9.70597 17.0161 9.70597 15.9091C9.70597 14.7988 9.91477 13.8542 10.3324 13.0753C10.75 12.2964 11.3184 11.7031 12.0376 11.2955C12.7569 10.8845 13.5689 10.679 14.4737 10.679C15.3719 10.679 16.1806 10.8845 16.8999 11.2955C17.6224 11.7031 18.1925 12.2964 18.6101 13.0753C19.031 13.8542 19.2415 14.7988 19.2415 15.9091ZM17.0589 15.9091C17.0589 15.1899 16.9512 14.5833 16.7358 14.0895C16.5237 13.5956 16.2237 13.2211 15.8359 12.9659C15.4482 12.7107 14.9941 12.5831 14.4737 12.5831C13.9534 12.5831 13.4993 12.7107 13.1115 12.9659C12.7237 13.2211 12.4221 13.5956 12.2067 14.0895C11.9946 14.5833 11.8885 15.1899 11.8885 15.9091C11.8885 16.6283 11.9946 17.2348 12.2067 17.7287C12.4221 18.2225 12.7237 18.5971 13.1115 18.8523C13.4993 19.1075 13.9534 19.2351 14.4737 19.2351C14.9941 19.2351 15.4482 19.1075 15.8359 18.8523C16.2237 18.5971 16.5237 18.2225 16.7358 17.7287C16.9512 17.2348 17.0589 16.6283 17.0589 15.9091ZM20.8361 21V10.8182H22.954V14.6463H23.0186C23.1114 14.4408 23.2457 14.232 23.4213 14.0199C23.6003 13.8045 23.8323 13.6255 24.1174 13.483C24.4057 13.3371 24.7637 13.2642 25.1912 13.2642C25.748 13.2642 26.2618 13.41 26.7324 13.7017C27.2031 13.9901 27.5792 14.4259 27.861 15.0092C28.1427 15.5893 28.2836 16.3168 28.2836 17.1918C28.2836 18.0436 28.146 18.7628 27.8709 19.3494C27.5991 19.9328 27.2279 20.3752 26.7573 20.6768C26.29 20.9751 25.7663 21.1243 25.1863 21.1243C24.7753 21.1243 24.4256 21.0563 24.1373 20.9205C23.8522 20.7846 23.6185 20.6139 23.4363 20.4084C23.254 20.1996 23.1148 19.9891 23.0186 19.777H22.9242V21H20.8361ZM22.9093 17.1818C22.9093 17.6359 22.9722 18.032 23.0982 18.37C23.2241 18.7081 23.4064 18.9716 23.6451 19.1605C23.8837 19.3461 24.1737 19.4389 24.5151 19.4389C24.8598 19.4389 25.1515 19.3445 25.3901 19.1555C25.6287 18.9633 25.8094 18.6982 25.932 18.3601C26.0579 18.0187 26.1209 17.6259 26.1209 17.1818C26.1209 16.741 26.0596 16.3532 25.937 16.0185C25.8143 15.6837 25.6337 15.4219 25.3951 15.233C25.1564 15.044 24.8631 14.9496 24.5151 14.9496C24.1704 14.9496 23.8787 15.0407 23.6401 15.223C23.4048 15.4053 23.2241 15.6638 23.0982 15.9986C22.9722 16.3333 22.9093 16.7277 22.9093 17.1818ZM36.0504 15.5412L34.1115 15.6605C34.0784 15.4948 34.0071 15.3456 33.8977 15.2131C33.7884 15.0772 33.6442 14.9695 33.4652 14.8899C33.2895 14.8071 33.0791 14.7656 32.8338 14.7656C32.5057 14.7656 32.2289 14.8352 32.0036 14.9744C31.7782 15.1103 31.6655 15.2926 31.6655 15.5213C31.6655 15.7036 31.7384 15.8577 31.8842 15.9837C32.0301 16.1096 32.2803 16.2107 32.6349 16.2869L34.017 16.5653C34.7595 16.7178 35.313 16.9631 35.6776 17.3011C36.0421 17.6392 36.2244 18.0833 36.2244 18.6335C36.2244 19.134 36.0769 19.5732 35.782 19.951C35.4903 20.3288 35.0893 20.6238 34.5788 20.8359C34.0717 21.0447 33.4867 21.1491 32.8239 21.1491C31.813 21.1491 31.0076 20.9387 30.4077 20.5178C29.8111 20.0935 29.4614 19.5168 29.3587 18.7876L31.4418 18.6783C31.5047 18.9865 31.6572 19.2218 31.8991 19.3842C32.1411 19.5433 32.451 19.6229 32.8288 19.6229C33.2 19.6229 33.4983 19.5516 33.7237 19.4091C33.9524 19.2633 34.0684 19.076 34.0717 18.8473C34.0684 18.6551 33.9872 18.4976 33.8281 18.375C33.669 18.2491 33.4238 18.1529 33.0923 18.0866L31.7699 17.8232C31.0241 17.674 30.469 17.4155 30.1044 17.0476C29.7431 16.6797 29.5625 16.2107 29.5625 15.6406C29.5625 15.1501 29.6951 14.7275 29.9602 14.3729C30.2287 14.0182 30.6049 13.7448 31.0888 13.5526C31.576 13.3603 32.1461 13.2642 32.799 13.2642C33.7635 13.2642 34.5225 13.468 35.076 13.8757C35.6328 14.2834 35.9576 14.8385 36.0504 15.5412ZM41.0382 21.1491C40.2527 21.1491 39.5765 20.9901 39.0098 20.6719C38.4463 20.3504 38.0121 19.8963 37.7072 19.3097C37.4023 18.7197 37.2498 18.022 37.2498 17.2166C37.2498 16.4311 37.4023 15.7417 37.7072 15.1484C38.0121 14.5552 38.4413 14.0928 38.9949 13.7614C39.5517 13.4299 40.2046 13.2642 40.9537 13.2642C41.4574 13.2642 41.9264 13.3454 42.3606 13.5078C42.7981 13.6669 43.1793 13.9072 43.5041 14.2287C43.8322 14.5502 44.0874 14.9545 44.2697 15.4418C44.452 15.9257 44.5431 16.4924 44.5431 17.142V17.7237H38.095V16.4112H42.5495C42.5495 16.1063 42.4833 15.8362 42.3507 15.6009C42.2181 15.3655 42.0342 15.1816 41.7988 15.049C41.5668 14.9131 41.2967 14.8452 40.9885 14.8452C40.667 14.8452 40.3819 14.9197 40.1333 15.0689C39.8881 15.2147 39.6958 15.4119 39.5566 15.6605C39.4174 15.9058 39.3462 16.1792 39.3429 16.4808V17.7287C39.3429 18.1065 39.4125 18.433 39.5517 18.7081C39.6942 18.9832 39.8947 19.1953 40.1532 19.3445C40.4118 19.4936 40.7183 19.5682 41.073 19.5682C41.3083 19.5682 41.5237 19.535 41.7193 19.4688C41.9148 19.4025 42.0822 19.303 42.2214 19.1705C42.3606 19.0379 42.4667 18.8755 42.5396 18.6832L44.4984 18.8125C44.399 19.2831 44.1951 19.6941 43.8869 20.0455C43.582 20.3935 43.1876 20.6652 42.7037 20.8608C42.2231 21.053 41.6679 21.1491 41.0382 21.1491ZM45.9252 21V13.3636H47.9785V14.696H48.0581C48.1973 14.2221 48.4309 13.8641 48.7591 13.6222C49.0872 13.3769 49.465 13.2543 49.8926 13.2543C49.9986 13.2543 50.113 13.2609 50.2356 13.2741C50.3583 13.2874 50.466 13.3056 50.5588 13.3288V15.2081C50.4593 15.1783 50.3218 15.1518 50.1461 15.1286C49.9705 15.1054 49.8097 15.0938 49.6639 15.0938C49.3523 15.0938 49.0739 15.1617 48.8287 15.2976C48.5867 15.4302 48.3945 15.6158 48.252 15.8544C48.1127 16.093 48.0431 16.3681 48.0431 16.6797V21H45.9252ZM59.0055 13.3636L56.3358 21H53.9494L51.2797 13.3636H53.5169L55.1028 18.8274H55.1824L56.7633 13.3636H59.0055ZM62.0618 21.1442C61.5746 21.1442 61.1404 21.0597 60.7592 20.8906C60.3781 20.7183 60.0765 20.4647 59.8544 20.13C59.6357 19.7919 59.5263 19.371 59.5263 18.8672C59.5263 18.4429 59.6042 18.0866 59.7599 17.7983C59.9157 17.5099 60.1278 17.2779 60.3963 17.1023C60.6648 16.9266 60.9697 16.794 61.3111 16.7045C61.6558 16.6151 62.017 16.5521 62.3949 16.5156C62.839 16.4692 63.197 16.4261 63.4688 16.3864C63.7405 16.3433 63.9377 16.2803 64.0604 16.1974C64.183 16.1146 64.2443 15.992 64.2443 15.8295V15.7997C64.2443 15.4848 64.1449 15.2412 63.946 15.0689C63.7505 14.8965 63.4721 14.8104 63.1108 14.8104C62.7296 14.8104 62.4264 14.8949 62.201 15.0639C61.9756 15.2296 61.8265 15.4384 61.7536 15.6903L59.7947 15.5312C59.8942 15.0672 60.0897 14.6662 60.3814 14.3281C60.6731 13.9867 61.0492 13.7249 61.5099 13.5426C61.974 13.357 62.5109 13.2642 63.1207 13.2642C63.545 13.2642 63.951 13.3139 64.3388 13.4134C64.7299 13.5128 65.0762 13.6669 65.3778 13.8757C65.6828 14.0845 65.9231 14.353 66.0987 14.6811C66.2744 15.0059 66.3622 15.3954 66.3622 15.8494V21H64.3537V19.9411H64.294C64.1714 20.1797 64.0073 20.3902 63.8018 20.5724C63.5964 20.7514 63.3494 20.8923 63.0611 20.995C62.7727 21.0945 62.4396 21.1442 62.0618 21.1442ZM62.6683 19.6825C62.9799 19.6825 63.255 19.6212 63.4936 19.4986C63.7322 19.3726 63.9195 19.2036 64.0554 18.9915C64.1913 18.7794 64.2592 18.5391 64.2592 18.2706V17.4602C64.1929 17.5033 64.1018 17.5431 63.9858 17.5795C63.8731 17.6127 63.7455 17.6442 63.603 17.674C63.4605 17.7005 63.3179 17.7254 63.1754 17.7486C63.0329 17.7685 62.9036 17.7867 62.7876 17.8033C62.5391 17.8397 62.322 17.8977 62.1364 17.9773C61.9508 18.0568 61.8066 18.1645 61.7038 18.3004C61.6011 18.433 61.5497 18.5987 61.5497 18.7976C61.5497 19.0859 61.6541 19.3063 61.8629 19.4588C62.075 19.608 62.3435 19.6825 62.6683 19.6825ZM68.0451 21V10.8182H70.163V14.6463H70.2276C70.3204 14.4408 70.4547 14.232 70.6303 14.0199C70.8093 13.8045 71.0413 13.6255 71.3263 13.483C71.6147 13.3371 71.9727 13.2642 72.4002 13.2642C72.957 13.2642 73.4708 13.41 73.9414 13.7017C74.4121 13.9901 74.7882 14.4259 75.07 15.0092C75.3517 15.5893 75.4925 16.3168 75.4925 17.1918C75.4925 18.0436 75.355 18.7628 75.0799 19.3494C74.8081 19.9328 74.4369 20.3752 73.9663 20.6768C73.4989 20.9751 72.9753 21.1243 72.3952 21.1243C71.9843 21.1243 71.6346 21.0563 71.3462 20.9205C71.0612 20.7846 70.8275 20.6139 70.6452 20.4084C70.4629 20.1996 70.3237 19.9891 70.2276 19.777H70.1332V21H68.0451ZM70.1183 17.1818C70.1183 17.6359 70.1812 18.032 70.3072 18.37C70.4331 18.7081 70.6154 18.9716 70.854 19.1605C71.0927 19.3461 71.3827 19.4389 71.7241 19.4389C72.0688 19.4389 72.3604 19.3445 72.5991 19.1555C72.8377 18.9633 73.0183 18.6982 73.141 18.3601C73.2669 18.0187 73.3299 17.6259 73.3299 17.1818C73.3299 16.741 73.2686 16.3532 73.146 16.0185C73.0233 15.6837 72.8427 15.4219 72.604 15.233C72.3654 15.044 72.0721 14.9496 71.7241 14.9496C71.3794 14.9496 71.0877 15.0407 70.8491 15.223C70.6138 15.4053 70.4331 15.6638 70.3072 15.9986C70.1812 16.3333 70.1183 16.7277 70.1183 17.1818ZM76.9057 21V13.3636H79.0236V21H76.9057ZM77.9696 12.3793C77.6548 12.3793 77.3846 12.2749 77.1593 12.0661C76.9372 11.8539 76.8262 11.6004 76.8262 11.3054C76.8262 11.0137 76.9372 10.7635 77.1593 10.5547C77.3846 10.3426 77.6548 10.2365 77.9696 10.2365C78.2845 10.2365 78.553 10.3426 78.775 10.5547C79.0004 10.7635 79.1131 11.0137 79.1131 11.3054C79.1131 11.6004 79.0004 11.8539 78.775 12.0661C78.553 12.2749 78.2845 12.3793 77.9696 12.3793ZM82.8381 10.8182V21H80.7202V10.8182H82.8381ZM84.5346 21V13.3636H86.6525V21H84.5346ZM85.5985 12.3793C85.2837 12.3793 85.0136 12.2749 84.7882 12.0661C84.5661 11.8539 84.4551 11.6004 84.4551 11.3054C84.4551 11.0137 84.5661 10.7635 84.7882 10.5547C85.0136 10.3426 85.2837 10.2365 85.5985 10.2365C85.9134 10.2365 86.1819 10.3426 86.4039 10.5547C86.6293 10.7635 86.742 11.0137 86.742 11.3054C86.742 11.6004 86.6293 11.8539 86.4039 12.0661C86.1819 12.2749 85.9134 12.3793 85.5985 12.3793ZM92.4109 13.3636V14.9545H87.8121V13.3636H92.4109ZM88.8562 11.5341H90.9741V18.6534C90.9741 18.849 91.0039 19.0014 91.0636 19.1108C91.1232 19.2169 91.2061 19.2914 91.3121 19.3345C91.4215 19.3776 91.5475 19.3991 91.69 19.3991C91.7894 19.3991 91.8888 19.3909 91.9883 19.3743C92.0877 19.3544 92.1639 19.3395 92.217 19.3295L92.5501 20.9055C92.444 20.9387 92.2949 20.9768 92.1026 21.0199C91.9104 21.0663 91.6767 21.0945 91.4016 21.1044C90.8912 21.1243 90.4438 21.0563 90.0593 20.9006C89.6781 20.7448 89.3815 20.5028 89.1694 20.1747C88.9573 19.8466 88.8529 19.4323 88.8562 18.9318V11.5341ZM95.098 23.8636C94.8295 23.8636 94.5777 23.8421 94.3423 23.799C94.1103 23.7592 93.9181 23.7079 93.7656 23.6449L94.2429 22.0639C94.4915 22.1402 94.7152 22.1816 94.9141 22.1882C95.1162 22.1948 95.2902 22.1484 95.4361 22.049C95.5852 21.9496 95.7062 21.7805 95.799 21.5419L95.9233 21.2188L93.1839 13.3636H95.4112L96.9922 18.9716H97.0717L98.6676 13.3636H100.91L97.9418 21.8253C97.7992 22.2363 97.6054 22.5942 97.3601 22.8991C97.1181 23.2074 96.8116 23.4444 96.4403 23.6101C96.0691 23.7791 95.6217 23.8636 95.098 23.8636Z" fill="white"/>
<rect x="113" width="28" height="30" fill="#2AB514"/>
<path d="M124.567 17.4919L131.903 10.1508C132.337 9.71679 133.041 9.71657 133.475 10.1503C133.909 10.5841 133.909 11.2876 133.475 11.7217L125.353 19.8492C124.919 20.2835 124.215 20.2835 123.781 19.8492L120.525 16.5911C120.091 16.157 120.091 15.4535 120.525 15.0197C120.959 14.5859 121.663 14.5862 122.097 15.0202L124.567 17.4919Z" fill="white"/>
</svg>
