<svg width="141" height="30" viewBox="0 0 141 30" fill="none" xmlns="http://www.w3.org/2000/svg">
<rect width="111" height="30" fill="#2AB514"/>
<path d="M32.4084 13.7464C32.3686 13.3454 32.1979 13.0339 31.8963 12.8118C31.5947 12.5897 31.1854 12.4787 30.6683 12.4787C30.317 12.4787 30.0204 12.5284 29.7784 12.6278C29.5365 12.724 29.3509 12.8582 29.2216 13.0305C29.0956 13.2029 29.0327 13.3984 29.0327 13.6172C29.026 13.7995 29.0642 13.9586 29.147 14.0945C29.2332 14.2304 29.3509 14.348 29.5 14.4474C29.6491 14.5436 29.8215 14.6281 30.017 14.701C30.2126 14.7706 30.4214 14.8303 30.6435 14.88L31.5582 15.0987C32.0024 15.1982 32.41 15.3307 32.7812 15.4964C33.1525 15.6622 33.474 15.866 33.7457 16.108C34.0175 16.3499 34.228 16.6349 34.3771 16.9631C34.5296 17.2912 34.6075 17.6674 34.6108 18.0916C34.6075 18.7147 34.4484 19.255 34.1335 19.7124C33.822 20.1664 33.3712 20.5194 32.7812 20.7713C32.1946 21.0199 31.487 21.1442 30.6584 21.1442C29.8364 21.1442 29.1205 21.0182 28.5107 20.7663C27.9041 20.5144 27.4302 20.1416 27.0888 19.6477C26.7507 19.1506 26.5734 18.5357 26.5568 17.8033H28.6399C28.6631 18.1446 28.7609 18.4297 28.9332 18.6584C29.1089 18.8838 29.3426 19.0545 29.6342 19.1705C29.9292 19.2831 30.2623 19.3395 30.6335 19.3395C30.9981 19.3395 31.3146 19.2865 31.5831 19.1804C31.8549 19.0743 32.0653 18.9268 32.2145 18.7379C32.3636 18.549 32.4382 18.3319 32.4382 18.0866C32.4382 17.858 32.3703 17.6657 32.2344 17.5099C32.1018 17.3542 31.9063 17.2216 31.6477 17.1122C31.3925 17.0028 31.0793 16.9034 30.7081 16.8139L29.5994 16.5355C28.741 16.3267 28.0632 16.0002 27.5661 15.5561C27.0689 15.112 26.822 14.5137 26.8253 13.7614C26.822 13.1449 26.986 12.6063 27.3175 12.1456C27.6522 11.6849 28.1113 11.3253 28.6946 11.0668C29.2779 10.8082 29.9408 10.679 30.6832 10.679C31.4389 10.679 32.0985 10.8082 32.6619 11.0668C33.2287 11.3253 33.6695 11.6849 33.9844 12.1456C34.2992 12.6063 34.4616 13.1399 34.4716 13.7464H32.4084ZM39.4991 21.1491C38.7136 21.1491 38.0375 20.9901 37.4707 20.6719C36.9073 20.3504 36.4731 19.8963 36.1681 19.3097C35.8632 18.7197 35.7108 18.022 35.7108 17.2166C35.7108 16.4311 35.8632 15.7417 36.1681 15.1484C36.4731 14.5552 36.9023 14.0928 37.4558 13.7614C38.0126 13.4299 38.6655 13.2642 39.4146 13.2642C39.9184 13.2642 40.3874 13.3454 40.8216 13.5078C41.2591 13.6669 41.6402 13.9072 41.965 14.2287C42.2931 14.5502 42.5484 14.9545 42.7306 15.4418C42.9129 15.9257 43.0041 16.4924 43.0041 17.142V17.7237H36.5559V16.4112H41.0105C41.0105 16.1063 40.9442 15.8362 40.8116 15.6009C40.679 15.3655 40.4951 15.1816 40.2598 15.049C40.0278 14.9131 39.7576 14.8452 39.4494 14.8452C39.1279 14.8452 38.8429 14.9197 38.5943 15.0689C38.349 15.2147 38.1568 15.4119 38.0176 15.6605C37.8784 15.9058 37.8071 16.1792 37.8038 16.4808V17.7287C37.8038 18.1065 37.8734 18.433 38.0126 18.7081C38.1551 18.9832 38.3556 19.1953 38.6142 19.3445C38.8727 19.4936 39.1793 19.5682 39.5339 19.5682C39.7692 19.5682 39.9847 19.535 40.1802 19.4688C40.3758 19.4025 40.5431 19.303 40.6824 19.1705C40.8216 19.0379 40.9276 18.8755 41.0005 18.6832L42.9593 18.8125C42.8599 19.2831 42.6561 19.6941 42.3478 20.0455C42.0429 20.3935 41.6485 20.6652 41.1646 20.8608C40.684 21.053 40.1288 21.1491 39.4991 21.1491ZM47.8365 21.1491C47.0543 21.1491 46.3815 20.9834 45.818 20.652C45.2579 20.3172 44.827 19.8532 44.5254 19.2599C44.2271 18.6667 44.0779 17.9839 44.0779 17.2116C44.0779 16.4295 44.2288 15.7434 44.5304 15.1534C44.8353 14.5601 45.2678 14.0978 45.8279 13.7663C46.3881 13.4316 47.0543 13.2642 47.8265 13.2642C48.4927 13.2642 49.0761 13.3852 49.5765 13.6271C50.077 13.8691 50.4731 14.2088 50.7647 14.6463C51.0564 15.0838 51.2172 15.5975 51.247 16.1875H49.2484C49.1921 15.8063 49.0429 15.4998 48.801 15.2678C48.5623 15.0324 48.2491 14.9148 47.8613 14.9148C47.5332 14.9148 47.2465 15.0043 47.0012 15.1832C46.7593 15.3589 46.5704 15.6158 46.4345 15.9538C46.2986 16.2919 46.2306 16.7012 46.2306 17.1818C46.2306 17.669 46.2969 18.0833 46.4295 18.4247C46.5654 18.7661 46.756 19.0263 47.0012 19.2053C47.2465 19.3842 47.5332 19.4737 47.8613 19.4737C48.1033 19.4737 48.3204 19.424 48.5126 19.3246C48.7082 19.2251 48.8689 19.081 48.9949 18.892C49.1241 18.6998 49.2086 18.4695 49.2484 18.201H51.247C51.2138 18.7843 51.0547 19.2981 50.7697 19.7422C50.488 20.183 50.0985 20.5277 49.6014 20.7763C49.1042 21.0249 48.5159 21.1491 47.8365 21.1491ZM57.5 17.7486V13.3636H59.6179V21H57.5845V19.6129H57.505C57.3326 20.0604 57.0459 20.42 56.6449 20.6918C56.2472 20.9635 55.7616 21.0994 55.1882 21.0994C54.6778 21.0994 54.2287 20.9834 53.8409 20.7514C53.4531 20.5194 53.1499 20.1896 52.9311 19.7621C52.7157 19.3345 52.6063 18.8224 52.603 18.2259V13.3636H54.7209V17.848C54.7242 18.2988 54.8452 18.6551 55.0838 18.9169C55.3224 19.1787 55.6423 19.3097 56.0433 19.3097C56.2985 19.3097 56.5372 19.2517 56.7592 19.1357C56.9813 19.0163 57.1603 18.8407 57.2962 18.6087C57.4354 18.3767 57.5033 18.09 57.5 17.7486ZM61.312 21V13.3636H63.3652V14.696H63.4448C63.584 14.2221 63.8176 13.8641 64.1458 13.6222C64.4739 13.3769 64.8517 13.2543 65.2793 13.2543C65.3854 13.2543 65.4997 13.2609 65.6223 13.2741C65.745 13.2874 65.8527 13.3056 65.9455 13.3288V15.2081C65.8461 15.1783 65.7085 15.1518 65.5328 15.1286C65.3572 15.1054 65.1964 15.0938 65.0506 15.0938C64.7391 15.0938 64.4606 15.1617 64.2154 15.2976C63.9734 15.4302 63.7812 15.6158 63.6387 15.8544C63.4995 16.093 63.4299 16.3681 63.4299 16.6797V21H61.312ZM67.0405 21V13.3636H69.1584V21H67.0405ZM68.1044 12.3793C67.7895 12.3793 67.5194 12.2749 67.294 12.0661C67.072 11.8539 66.9609 11.6004 66.9609 11.3054C66.9609 11.0137 67.072 10.7635 67.294 10.5547C67.5194 10.3426 67.7895 10.2365 68.1044 10.2365C68.4193 10.2365 68.6877 10.3426 68.9098 10.5547C69.1352 10.7635 69.2479 11.0137 69.2479 11.3054C69.2479 11.6004 69.1352 11.8539 68.9098 12.0661C68.6877 12.2749 68.4193 12.3793 68.1044 12.3793ZM74.9167 13.3636V14.9545H70.318V13.3636H74.9167ZM71.362 11.5341H73.4799V18.6534C73.4799 18.849 73.5098 19.0014 73.5694 19.1108C73.6291 19.2169 73.7119 19.2914 73.818 19.3345C73.9274 19.3776 74.0533 19.3991 74.1958 19.3991C74.2953 19.3991 74.3947 19.3909 74.4941 19.3743C74.5936 19.3544 74.6698 19.3395 74.7228 19.3295L75.0559 20.9055C74.9499 20.9387 74.8007 20.9768 74.6085 21.0199C74.4163 21.0663 74.1826 21.0945 73.9075 21.1044C73.3971 21.1243 72.9496 21.0563 72.5652 20.9006C72.184 20.7448 71.8874 20.5028 71.6752 20.1747C71.4631 19.8466 71.3587 19.4323 71.362 18.9318V11.5341ZM77.6039 23.8636C77.3354 23.8636 77.0835 23.8421 76.8482 23.799C76.6162 23.7592 76.4239 23.7079 76.2715 23.6449L76.7488 22.0639C76.9973 22.1402 77.2211 22.1816 77.4199 22.1882C77.6221 22.1948 77.7961 22.1484 77.9419 22.049C78.0911 21.9496 78.2121 21.7805 78.3049 21.5419L78.4292 21.2188L75.6898 13.3636H77.9171L79.498 18.9716H79.5776L81.1735 13.3636H83.4157L80.4476 21.8253C80.3051 22.2363 80.1112 22.5942 79.8659 22.8991C79.624 23.2074 79.3174 23.4444 78.9462 23.6101C78.575 23.7791 78.1275 23.8636 77.6039 23.8636Z" fill="white"/>
<rect x="113" width="28" height="30" fill="#2AB514"/>
<path d="M124.567 17.4919L131.903 10.1508C132.337 9.71679 133.041 9.71657 133.475 10.1503C133.909 10.5841 133.909 11.2876 133.475 11.7217L125.353 19.8492C124.919 20.2835 124.215 20.2835 123.781 19.8492L120.525 16.5911C120.091 16.157 120.091 15.4535 120.525 15.0197C120.959 14.5859 121.663 14.5862 122.097 15.0202L124.567 17.4919Z" fill="white"/>
</svg>
